<svg xmlns="http://www.w3.org/2000/svg" xmlns:xlink="http://www.w3.org/1999/xlink" width="200" zoomAndPan="magnify" viewBox="0 0 150 149.999998" height="200" preserveAspectRatio="xMidYMid meet" version="1.2"><defs><clipPath id="56eef7c0b3"><path d="M 44 30.941406 L 106.554688 30.941406 L 106.554688 118.691406 L 44 118.691406 Z M 44 30.941406 "/></clipPath><clipPath id="a64d7ced3b"><path d="M 1 26 L 62.4375 26 L 62.4375 88.691406 L 1 88.691406 Z M 1 26 "/></clipPath><clipPath id="e5fa98f38e"><rect x="0" width="63" y="0" height="89"/></clipPath></defs><g id="d4107f3122"><g clip-rule="nonzero" clip-path="url(#56eef7c0b3)"><g transform="matrix(1,0,0,1,44,30)"><g clip-path="url(#e5fa98f38e)"><path style=" stroke:none;fill-rule:nonzero;fill:#000000;fill-opacity:1;" d="M 13.601562 21.820312 C 14.546875 23.3125 15.5 24.800781 16.457031 26.285156 C 17.761719 25.445312 19.296875 24.972656 20.894531 24.972656 C 21.730469 24.972656 22.566406 25.105469 23.367188 25.363281 C 27.394531 26.648438 29.769531 30.488281 29.144531 34.703125 C 28.796875 37.050781 27.375 39.046875 25.390625 40.28125 C 26.675781 42.277344 27.957031 44.261719 29.25 46.238281 C 29.742188 46.996094 30.445312 47.085938 31.203125 46.601562 C 34.390625 44.5625 37.585938 42.523438 40.761719 40.464844 C 41.652344 39.886719 41.722656 39.261719 41.085938 38.277344 C 37.007812 31.898438 32.914062 25.523438 28.832031 19.152344 C 27.75 17.464844 26.6875 15.773438 25.59375 14.097656 C 24.90625 13.046875 24.332031 12.9375 23.269531 13.621094 C 20.230469 15.554688 17.191406 17.5 14.160156 19.449219 C 13.015625 20.179688 12.882812 20.6875 13.601562 21.820312 "/><path style=" stroke:none;fill-rule:nonzero;fill:#000000;fill-opacity:1;" d="M 21.757812 11.417969 C 20.402344 9.332031 18.957031 7.128906 17.523438 4.925781 C 16.917969 3.996094 16.339844 3.058594 15.726562 2.140625 C 15.066406 1.144531 14.554688 0.996094 13.585938 1.601562 C 11.4375 2.949219 9.316406 4.328125 7.191406 5.703125 C 6.382812 6.222656 6.234375 6.914062 6.746094 7.71875 C 8.769531 10.90625 10.804688 14.085938 12.8125 17.226562 C 15.785156 15.289062 18.699219 13.398438 21.757812 11.417969 "/><path style=" stroke:none;fill-rule:nonzero;fill:#000000;fill-opacity:1;" d="M 41.828125 42.855469 C 38.792969 44.792969 35.886719 46.652344 32.847656 48.589844 C 33.851562 50.113281 34.875 51.695312 35.9375 53.25 C 36.386719 53.910156 37.058594 54.03125 37.722656 53.613281 C 39.957031 52.210938 42.183594 50.796875 44.386719 49.351562 C 45.078125 48.894531 45.238281 48.230469 44.777344 47.492188 C 43.792969 45.933594 42.792969 44.371094 41.828125 42.855469 "/><g clip-rule="nonzero" clip-path="url(#a64d7ced3b)"><path style=" stroke:none;fill-rule:nonzero;fill:#000000;fill-opacity:1;" d="M 20.796875 36.804688 C 22.839844 36.835938 24.429688 35.359375 24.460938 33.390625 C 24.507812 31.371094 23.0625 29.824219 21.050781 29.777344 C 18.988281 29.730469 17.539062 31.117188 17.492188 33.203125 C 17.445312 35.15625 18.945312 36.777344 20.796875 36.804688 Z M 6.691406 84.300781 C 8.015625 83.128906 9.449219 82.085938 10.964844 81.152344 C 11.824219 80.617188 12.722656 80.132812 13.632812 79.683594 C 13.910156 79.546875 14.191406 79.402344 14.488281 79.265625 C 12.691406 77.703125 10.824219 76.316406 9.34375 74.605469 C 1.550781 65.625 -0.429688 55.492188 3.8125 44.273438 C 5.773438 39.113281 9.015625 34.917969 13.488281 31.660156 C 13.9375 31.335938 14.328125 30.804688 14.582031 30.292969 C 16.09375 27.144531 19.660156 25.554688 22.976562 26.597656 C 26.394531 27.6875 28.390625 30.929688 27.859375 34.511719 C 27.359375 37.847656 24.273438 40.316406 20.703125 40.300781 C 20.066406 40.28125 19.207031 40.300781 18.789062 40.671875 C 13.394531 45.503906 10.917969 51.488281 12.445312 58.691406 C 14.609375 68.945312 23.742188 75.023438 34.078125 73.292969 C 37.058594 72.78125 39.75 71.5625 42.042969 69.335938 C 41.089844 69.335938 40.15625 69.363281 39.207031 69.320312 C 37.269531 69.257812 36.132812 68.199219 36.132812 66.515625 C 36.148438 64.753906 37.320312 63.691406 39.300781 63.691406 C 42.117188 63.675781 44.941406 63.675781 47.761719 63.675781 C 51.628906 63.675781 55.492188 63.660156 59.355469 63.691406 C 61.121094 63.707031 62.476562 64.984375 62.476562 66.542969 C 62.476562 68.121094 61.289062 69.226562 59.464844 69.320312 C 58.515625 69.363281 57.546875 69.277344 56.613281 69.378906 C 56.179688 69.429688 55.636719 69.738281 55.417969 70.082031 C 53.355469 73.546875 50.628906 76.347656 47.355469 78.640625 C 47.152344 78.792969 46.953125 78.9375 46.71875 79.121094 C 47.058594 79.277344 47.40625 79.453125 47.734375 79.605469 C 49.136719 80.304688 50.476562 81.085938 51.769531 81.957031 C 52.394531 82.390625 53.015625 82.847656 53.609375 83.316406 C 53.933594 83.578125 54.277344 83.894531 54.621094 84.1875 C 54.867188 84.402344 55.214844 84.578125 55.257812 84.921875 C 55.304688 85.34375 55.246094 85.820312 55.257812 86.261719 C 55.257812 87.179688 55.273438 88.101562 55.273438 89.035156 L 5.914062 89.035156 L 5.914062 85.105469 C 5.925781 85.078125 5.925781 85.046875 5.941406 85.03125 C 6.117188 84.71875 6.425781 84.546875 6.691406 84.300781 "/></g></g></g></g></g></svg>