<svg xmlns="http://www.w3.org/2000/svg" xmlns:xlink="http://www.w3.org/1999/xlink" width="771" zoomAndPan="magnify" viewBox="0 0 578.25 809.999971" height="1080" preserveAspectRatio="xMidYMid meet" version="1.2"><defs><clipPath id="eada439ad9"><path d="M 14 0.523438 L 577.5 0.523438 L 577.5 809.398438 L 14 809.398438 Z M 14 0.523438 "/></clipPath><clipPath id="88a40f9651"><path d="M 5 233 L 563.5 233 L 563.5 809.398438 L 5 809.398438 Z M 5 233 "/></clipPath><clipPath id="3196b5e542"><rect x="0" width="564" y="0" height="810"/></clipPath></defs><g id="5d707a1346"><g clip-rule="nonzero" clip-path="url(#eada439ad9)"><g transform="matrix(1,0,0,1,14,0.000000000000016653)"><g clip-path="url(#3196b5e542)"><path style=" stroke:none;fill-rule:nonzero;fill:#000000;fill-opacity:1;" d="M 115.023438 192.109375 C 123.703125 205.835938 132.433594 219.511719 141.214844 233.136719 C 153.226562 225.417969 167.308594 221.078125 181.992188 221.078125 C 189.664062 221.078125 197.335938 222.289062 204.703125 224.660156 C 241.695312 236.46875 263.496094 271.746094 257.742188 310.453125 C 254.5625 332.003906 241.492188 350.320312 223.273438 361.675781 C 235.082031 379.996094 246.84375 398.214844 258.703125 416.382812 C 263.242188 423.347656 269.703125 424.15625 276.667969 419.714844 C 305.9375 400.992188 335.261719 382.265625 364.429688 363.34375 C 372.605469 358.042969 373.261719 352.289062 367.40625 343.257812 C 329.960938 284.664062 292.363281 226.125 254.867188 167.632812 C 244.925781 152.140625 235.183594 136.59375 225.140625 121.203125 C 218.832031 111.5625 213.535156 110.554688 203.792969 116.8125 C 175.886719 134.578125 147.976562 152.441406 120.121094 170.355469 C 109.625 177.070312 108.414062 181.710938 115.023438 192.109375 "/><path style=" stroke:none;fill-rule:nonzero;fill:#000000;fill-opacity:1;" d="M 189.914062 96.574219 C 177.449219 77.449219 164.179688 57.210938 151.007812 36.972656 C 145.453125 28.445312 140.15625 19.816406 134.503906 11.386719 C 128.449219 2.253906 123.753906 0.890625 114.871094 6.441406 C 95.140625 18.804688 75.660156 31.472656 56.128906 44.089844 C 48.710938 48.882812 47.347656 55.242188 52.039062 62.609375 C 70.613281 91.882812 89.335938 121.101562 107.757812 149.917969 C 135.058594 132.152344 161.804688 114.792969 189.914062 96.574219 "/><path style=" stroke:none;fill-rule:nonzero;fill:#000000;fill-opacity:1;" d="M 374.21875 385.296875 C 346.363281 403.109375 319.664062 420.167969 291.757812 437.980469 C 300.992188 451.960938 310.378906 466.496094 320.121094 480.777344 C 324.257812 486.835938 330.414062 487.945312 336.523438 484.109375 C 357.0625 471.238281 377.5 458.21875 397.738281 444.945312 C 404.097656 440.757812 405.558594 434.652344 401.320312 427.890625 C 392.289062 413.554688 383.101562 399.222656 374.21875 385.296875 "/><g clip-rule="nonzero" clip-path="url(#88a40f9651)"><path style=" stroke:none;fill-rule:nonzero;fill:#000000;fill-opacity:1;" d="M 181.085938 329.730469 C 199.859375 330.035156 214.441406 316.457031 214.746094 298.390625 C 215.148438 279.820312 201.875 265.636719 183.40625 265.183594 C 164.480469 264.78125 151.15625 277.5 150.753906 296.675781 C 150.300781 314.589844 164.078125 329.480469 181.085938 329.730469 Z M 51.535156 765.914062 C 63.699219 755.164062 76.871094 745.578125 90.800781 736.996094 C 98.671875 732.101562 106.949219 727.660156 115.277344 723.523438 C 117.847656 722.261719 120.421875 720.949219 123.148438 719.6875 C 106.644531 705.355469 89.488281 692.585938 75.910156 676.890625 C 4.351562 594.429688 -13.867188 501.367188 25.089844 398.316406 C 43.109375 350.925781 72.882812 312.421875 113.964844 282.496094 C 118.101562 279.515625 121.683594 274.621094 124.007812 269.929688 C 137.882812 241.011719 170.636719 226.425781 201.121094 236.015625 C 232.511719 246.007812 250.828125 275.78125 245.933594 308.6875 C 241.339844 339.320312 213.03125 361.980469 180.226562 361.828125 C 174.371094 361.675781 166.5 361.828125 162.664062 365.261719 C 113.105469 409.621094 90.34375 464.578125 104.375 530.742188 C 124.257812 624.910156 208.132812 680.726562 303.0625 664.832031 C 330.414062 660.136719 355.144531 648.933594 376.1875 628.496094 C 367.457031 628.496094 358.878906 628.746094 350.148438 628.34375 C 332.382812 627.789062 321.9375 618.046875 321.9375 602.605469 C 322.089844 586.40625 332.835938 576.664062 351.003906 576.664062 C 376.894531 576.511719 402.835938 576.511719 428.722656 576.511719 C 464.253906 576.511719 499.730469 576.363281 535.210938 576.664062 C 551.410156 576.816406 563.875 588.523438 563.875 602.855469 C 563.875 617.339844 552.972656 627.484375 536.21875 628.34375 C 527.488281 628.746094 518.605469 627.9375 510.027344 628.898438 C 506.039062 629.351562 501.042969 632.179688 499.023438 635.359375 C 480.101562 667.152344 455.066406 692.890625 424.988281 713.933594 C 423.121094 715.347656 421.304688 716.660156 419.136719 718.375 C 422.265625 719.789062 425.445312 721.402344 428.472656 722.816406 C 441.339844 729.226562 453.65625 736.390625 465.515625 744.417969 C 471.269531 748.402344 476.96875 752.59375 482.421875 756.882812 C 485.398438 759.304688 488.578125 762.179688 491.707031 764.90625 C 493.976562 766.875 497.15625 768.488281 497.5625 771.617188 C 498.015625 775.503906 497.460938 779.894531 497.5625 783.933594 C 497.5625 792.359375 497.710938 800.839844 497.710938 809.417969 L 44.421875 809.417969 L 44.421875 773.332031 C 44.519531 773.082031 44.519531 772.777344 44.671875 772.628906 C 46.289062 769.75 49.113281 768.1875 51.535156 765.914062 "/></g></g></g></g></g></svg>