<svg xmlns="http://www.w3.org/2000/svg" xmlns:xlink="http://www.w3.org/1999/xlink" width="540" zoomAndPan="magnify" viewBox="0 0 404.88 112.499997" height="150" preserveAspectRatio="xMidYMid meet" version="1.2"><defs><clipPath id="c910a26094"><path d="M 5 7.808594 L 72.5625 7.808594 L 72.5625 104.132812 L 5 104.132812 Z M 5 7.808594 "/></clipPath><clipPath id="0337c1dd8f"><path d="M 1 28 L 67.5625 28 L 67.5625 97.132812 L 1 97.132812 Z M 1 28 "/></clipPath><clipPath id="c0245bf309"><rect x="0" width="68" y="0" height="98"/></clipPath></defs><g id="59272fc65c"><g clip-rule="nonzero" clip-path="url(#c910a26094)"><g transform="matrix(1,0,0,1,5,7)"><g clip-path="url(#c0245bf309)"><path style=" stroke:none;fill-rule:nonzero;fill:#000000;fill-opacity:1;" d="M 14.234375 23.640625 C 15.269531 25.277344 16.308594 26.90625 17.355469 28.527344 C 18.785156 27.609375 20.460938 27.09375 22.210938 27.09375 C 23.125 27.09375 24.039062 27.234375 24.917969 27.519531 C 29.324219 28.925781 31.917969 33.128906 31.234375 37.738281 C 30.855469 40.304688 29.300781 42.488281 27.128906 43.839844 C 28.535156 46.019531 29.9375 48.191406 31.347656 50.355469 C 31.890625 51.183594 32.660156 51.28125 33.488281 50.753906 C 36.976562 48.523438 40.46875 46.292969 43.941406 44.039062 C 44.917969 43.40625 44.996094 42.722656 44.296875 41.644531 C 39.835938 34.667969 35.359375 27.691406 30.890625 20.726562 C 29.707031 18.878906 28.546875 17.027344 27.351562 15.195312 C 26.601562 14.046875 25.96875 13.925781 24.808594 14.671875 C 21.484375 16.789062 18.160156 18.917969 14.84375 21.050781 C 13.589844 21.851562 13.449219 22.402344 14.234375 23.640625 "/><path style=" stroke:none;fill-rule:nonzero;fill:#000000;fill-opacity:1;" d="M 23.15625 12.261719 C 21.671875 9.984375 20.089844 7.574219 18.519531 5.164062 C 17.859375 4.148438 17.226562 3.117188 16.554688 2.113281 C 15.832031 1.027344 15.273438 0.863281 14.214844 1.527344 C 11.867188 3 9.546875 4.507812 7.21875 6.011719 C 6.335938 6.582031 6.171875 7.339844 6.734375 8.214844 C 8.945312 11.703125 11.175781 15.183594 13.367188 18.617188 C 16.621094 16.5 19.808594 14.433594 23.15625 12.261719 "/><path style=" stroke:none;fill-rule:nonzero;fill:#000000;fill-opacity:1;" d="M 45.109375 46.652344 C 41.789062 48.773438 38.609375 50.804688 35.285156 52.929688 C 36.386719 54.59375 37.503906 56.324219 38.664062 58.027344 C 39.15625 58.746094 39.890625 58.878906 40.617188 58.421875 C 43.066406 56.890625 45.5 55.339844 47.910156 53.757812 C 48.667969 53.257812 48.839844 52.53125 48.335938 51.726562 C 47.261719 50.019531 46.167969 48.3125 45.109375 46.652344 "/><g clip-rule="nonzero" clip-path="url(#0337c1dd8f)"><path style=" stroke:none;fill-rule:nonzero;fill:#000000;fill-opacity:1;" d="M 22.101562 40.035156 C 24.339844 40.070312 26.078125 38.453125 26.113281 36.300781 C 26.160156 34.089844 24.582031 32.398438 22.378906 32.347656 C 20.125 32.296875 18.539062 33.8125 18.492188 36.097656 C 18.4375 38.230469 20.078125 40.003906 22.101562 40.035156 Z M 6.671875 91.988281 C 8.121094 90.710938 9.691406 89.566406 11.347656 88.546875 C 12.285156 87.960938 13.273438 87.433594 14.265625 86.941406 C 14.570312 86.789062 14.878906 86.632812 15.203125 86.484375 C 13.238281 84.777344 11.191406 83.253906 9.574219 81.386719 C 1.050781 71.5625 -1.117188 60.480469 3.523438 48.203125 C 5.667969 42.558594 9.214844 37.972656 14.109375 34.40625 C 14.601562 34.054688 15.027344 33.46875 15.304688 32.910156 C 16.957031 29.464844 20.859375 27.730469 24.488281 28.871094 C 28.230469 30.0625 30.410156 33.609375 29.828125 37.527344 C 29.28125 41.175781 25.910156 43.875 22 43.855469 C 21.304688 43.839844 20.367188 43.855469 19.910156 44.265625 C 14.007812 49.550781 11.296875 56.097656 12.964844 63.976562 C 15.335938 75.195312 25.324219 81.84375 36.632812 79.949219 C 39.890625 79.390625 42.835938 78.054688 45.34375 75.621094 C 44.304688 75.621094 43.28125 75.652344 42.242188 75.601562 C 40.125 75.535156 38.882812 74.375 38.882812 72.535156 C 38.898438 70.609375 40.179688 69.449219 42.34375 69.449219 C 45.425781 69.429688 48.515625 69.429688 51.601562 69.429688 C 55.832031 69.429688 60.058594 69.410156 64.285156 69.449219 C 66.214844 69.464844 67.699219 70.859375 67.699219 72.566406 C 67.699219 74.292969 66.402344 75.5 64.40625 75.601562 C 63.363281 75.652344 62.308594 75.554688 61.285156 75.667969 C 60.808594 75.722656 60.214844 76.058594 59.972656 76.4375 C 57.71875 80.226562 54.738281 83.292969 51.15625 85.796875 C 50.933594 85.964844 50.71875 86.121094 50.457031 86.328125 C 50.832031 86.496094 51.210938 86.6875 51.570312 86.855469 C 53.105469 87.621094 54.570312 88.472656 55.984375 89.429688 C 56.667969 89.902344 57.347656 90.402344 57.996094 90.914062 C 58.351562 91.203125 58.730469 91.542969 59.101562 91.871094 C 59.375 92.105469 59.753906 92.296875 59.800781 92.667969 C 59.855469 93.132812 59.789062 93.65625 59.800781 94.136719 C 59.800781 95.140625 59.816406 96.148438 59.816406 97.171875 L 5.824219 97.171875 L 5.824219 92.875 C 5.835938 92.84375 5.835938 92.808594 5.855469 92.789062 C 6.046875 92.445312 6.382812 92.261719 6.671875 91.988281 "/></g></g></g></g><g style="fill:#000000;fill-opacity:1;"><g transform="translate(82.712669, 82.134949)"><path style="stroke:none" d="M 14.609375 -7.109375 L 32.765625 -7.109375 L 32.765625 0 L 5.796875 0 L 5.796875 -53.703125 L 14.609375 -53.703125 Z M 14.609375 -7.109375 "/></g></g><g style="fill:#000000;fill-opacity:1;"><g transform="translate(114.706899, 82.134949)"><path style="stroke:none" d="M 2.859375 -21.484375 C 2.859375 -25.765625 3.742188 -29.550781 5.515625 -32.84375 C 7.296875 -36.144531 9.71875 -38.707031 12.78125 -40.53125 C 15.851562 -42.363281 19.242188 -43.28125 22.953125 -43.28125 C 26.296875 -43.28125 29.21875 -42.625 31.71875 -41.3125 C 34.21875 -40 36.21875 -38.363281 37.71875 -36.40625 L 37.71875 -42.578125 L 46.59375 -42.578125 L 46.59375 0 L 37.71875 0 L 37.71875 -6.34375 C 36.21875 -4.332031 34.179688 -2.65625 31.609375 -1.3125 C 29.035156 0.03125 26.097656 0.703125 22.796875 0.703125 C 19.140625 0.703125 15.789062 -0.238281 12.75 -2.125 C 9.707031 -4.007812 7.296875 -6.632812 5.515625 -10 C 3.742188 -13.375 2.859375 -17.203125 2.859375 -21.484375 Z M 37.71875 -21.328125 C 37.71875 -24.265625 37.109375 -26.8125 35.890625 -28.96875 C 34.679688 -31.132812 33.097656 -32.785156 31.140625 -33.921875 C 29.179688 -35.054688 27.070312 -35.625 24.8125 -35.625 C 22.539062 -35.625 20.425781 -35.066406 18.46875 -33.953125 C 16.507812 -32.847656 14.925781 -31.226562 13.71875 -29.09375 C 12.507812 -26.957031 11.90625 -24.421875 11.90625 -21.484375 C 11.90625 -18.546875 12.507812 -15.96875 13.71875 -13.75 C 14.925781 -11.539062 16.519531 -9.851562 18.5 -8.6875 C 20.488281 -7.53125 22.59375 -6.953125 24.8125 -6.953125 C 27.070312 -6.953125 29.179688 -7.519531 31.140625 -8.65625 C 33.097656 -9.789062 34.679688 -11.453125 35.890625 -13.640625 C 37.109375 -15.828125 37.71875 -18.390625 37.71875 -21.328125 Z M 37.71875 -21.328125 "/></g></g><g style="fill:#000000;fill-opacity:1;"><g transform="translate(164.78499, 82.134949)"><path style="stroke:none" d="M 14.609375 -36.25 C 16.097656 -38.3125 18.144531 -40 20.75 -41.3125 C 23.351562 -42.625 26.25 -43.28125 29.4375 -43.28125 C 33.195312 -43.28125 36.597656 -42.378906 39.640625 -40.578125 C 42.679688 -38.773438 45.078125 -36.210938 46.828125 -32.890625 C 48.578125 -29.566406 49.453125 -25.765625 49.453125 -21.484375 C 49.453125 -17.203125 48.578125 -13.375 46.828125 -10 C 45.078125 -6.632812 42.671875 -4.007812 39.609375 -2.125 C 36.546875 -0.238281 33.15625 0.703125 29.4375 0.703125 C 26.144531 0.703125 23.222656 0.0546875 20.671875 -1.234375 C 18.117188 -2.523438 16.097656 -4.175781 14.609375 -6.1875 L 14.609375 0 L 5.796875 0 L 5.796875 -57.1875 L 14.609375 -57.1875 Z M 40.5 -21.484375 C 40.5 -24.421875 39.890625 -26.957031 38.671875 -29.09375 C 37.460938 -31.226562 35.863281 -32.847656 33.875 -33.953125 C 31.894531 -35.066406 29.773438 -35.625 27.515625 -35.625 C 25.296875 -35.625 23.191406 -35.054688 21.203125 -33.921875 C 19.222656 -32.785156 17.628906 -31.132812 16.421875 -28.96875 C 15.210938 -26.8125 14.609375 -24.265625 14.609375 -21.328125 C 14.609375 -18.390625 15.210938 -15.828125 16.421875 -13.640625 C 17.628906 -11.453125 19.222656 -9.789062 21.203125 -8.65625 C 23.191406 -7.519531 25.296875 -6.953125 27.515625 -6.953125 C 29.773438 -6.953125 31.894531 -7.53125 33.875 -8.6875 C 35.863281 -9.851562 37.460938 -11.539062 38.671875 -13.75 C 39.890625 -15.96875 40.5 -18.546875 40.5 -21.484375 Z M 40.5 -21.484375 "/></g></g><g style="fill:#000000;fill-opacity:1;"><g transform="translate(214.86308, 82.134949)"><path style="stroke:none" d="M 21.25 0.703125 C 17.90625 0.703125 14.90625 0.0976562 12.25 -1.109375 C 9.59375 -2.328125 7.488281 -3.976562 5.9375 -6.0625 C 4.394531 -8.15625 3.578125 -10.488281 3.484375 -13.0625 L 12.59375 -13.0625 C 12.75 -11.257812 13.613281 -9.75 15.1875 -8.53125 C 16.757812 -7.320312 18.726562 -6.71875 21.09375 -6.71875 C 23.570312 -6.71875 25.492188 -7.191406 26.859375 -8.140625 C 28.222656 -9.097656 28.90625 -10.328125 28.90625 -11.828125 C 28.90625 -13.421875 28.144531 -14.601562 26.625 -15.375 C 25.101562 -16.144531 22.691406 -16.992188 19.390625 -17.921875 C 16.203125 -18.804688 13.601562 -19.660156 11.59375 -20.484375 C 9.582031 -21.304688 7.84375 -22.566406 6.375 -24.265625 C 4.90625 -25.960938 4.171875 -28.203125 4.171875 -30.984375 C 4.171875 -33.253906 4.835938 -35.328125 6.171875 -37.203125 C 7.515625 -39.085938 9.4375 -40.570312 11.9375 -41.65625 C 14.4375 -42.738281 17.3125 -43.28125 20.5625 -43.28125 C 25.40625 -43.28125 29.304688 -42.054688 32.265625 -39.609375 C 35.222656 -37.160156 36.804688 -33.820312 37.015625 -29.59375 L 28.203125 -29.59375 C 28.046875 -31.5 27.269531 -33.019531 25.875 -34.15625 C 24.488281 -35.289062 22.613281 -35.859375 20.25 -35.859375 C 17.925781 -35.859375 16.144531 -35.421875 14.90625 -34.546875 C 13.675781 -33.671875 13.0625 -32.507812 13.0625 -31.0625 C 13.0625 -29.925781 13.472656 -28.972656 14.296875 -28.203125 C 15.117188 -27.429688 16.125 -26.828125 17.3125 -26.390625 C 18.5 -25.953125 20.25 -25.398438 22.5625 -24.734375 C 25.65625 -23.910156 28.191406 -23.070312 30.171875 -22.21875 C 32.160156 -21.363281 33.875 -20.113281 35.3125 -18.46875 C 36.757812 -16.820312 37.507812 -14.632812 37.5625 -11.90625 C 37.5625 -9.476562 36.890625 -7.3125 35.546875 -5.40625 C 34.210938 -3.5 32.320312 -2.003906 29.875 -0.921875 C 27.425781 0.160156 24.550781 0.703125 21.25 0.703125 Z M 21.25 0.703125 "/></g></g><g style="fill:#000000;fill-opacity:1;"><g transform="translate(253.812637, 82.134949)"><path style="stroke:none" d="M 16.078125 -35.390625 L 16.078125 -11.828125 C 16.078125 -10.222656 16.445312 -9.070312 17.1875 -8.375 C 17.9375 -7.6875 19.210938 -7.34375 21.015625 -7.34375 L 26.4375 -7.34375 L 26.4375 0 L 19.46875 0 C 15.507812 0 12.472656 -0.925781 10.359375 -2.78125 C 8.242188 -4.632812 7.1875 -7.648438 7.1875 -11.828125 L 7.1875 -35.390625 L 2.15625 -35.390625 L 2.15625 -42.578125 L 7.1875 -42.578125 L 7.1875 -53.171875 L 16.078125 -53.171875 L 16.078125 -42.578125 L 26.4375 -42.578125 L 26.4375 -35.390625 Z M 16.078125 -35.390625 "/></g></g><g style="fill:#000000;fill-opacity:1;"><g transform="translate(280.242612, 82.134949)"><path style="stroke:none" d="M 24.265625 0.703125 C 20.242188 0.703125 16.609375 -0.210938 13.359375 -2.046875 C 10.117188 -3.878906 7.570312 -6.457031 5.71875 -9.78125 C 3.863281 -13.101562 2.9375 -16.953125 2.9375 -21.328125 C 2.9375 -25.660156 3.890625 -29.5 5.796875 -32.84375 C 7.703125 -36.195312 10.300781 -38.773438 13.59375 -40.578125 C 16.894531 -42.378906 20.582031 -43.28125 24.65625 -43.28125 C 28.726562 -43.28125 32.410156 -42.378906 35.703125 -40.578125 C 39.003906 -38.773438 41.609375 -36.195312 43.515625 -32.84375 C 45.421875 -29.5 46.375 -25.660156 46.375 -21.328125 C 46.375 -17.003906 45.394531 -13.164062 43.4375 -9.8125 C 41.476562 -6.46875 38.8125 -3.878906 35.4375 -2.046875 C 32.0625 -0.210938 28.335938 0.703125 24.265625 0.703125 Z M 24.265625 -6.953125 C 26.535156 -6.953125 28.660156 -7.492188 30.640625 -8.578125 C 32.628906 -9.660156 34.238281 -11.28125 35.46875 -13.4375 C 36.707031 -15.601562 37.328125 -18.234375 37.328125 -21.328125 C 37.328125 -24.421875 36.734375 -27.035156 35.546875 -29.171875 C 34.359375 -31.304688 32.785156 -32.914062 30.828125 -34 C 28.878906 -35.082031 26.769531 -35.625 24.5 -35.625 C 22.226562 -35.625 20.125 -35.082031 18.1875 -34 C 16.257812 -32.914062 14.726562 -31.304688 13.59375 -29.171875 C 12.46875 -27.035156 11.90625 -24.421875 11.90625 -21.328125 C 11.90625 -16.742188 13.078125 -13.203125 15.421875 -10.703125 C 17.765625 -8.203125 20.710938 -6.953125 24.265625 -6.953125 Z M 24.265625 -6.953125 "/></g></g><g style="fill:#000000;fill-opacity:1;"><g transform="translate(327.229442, 82.134949)"><path style="stroke:none" d="M 14.609375 -36.40625 C 15.890625 -38.5625 17.597656 -40.242188 19.734375 -41.453125 C 21.878906 -42.671875 24.421875 -43.28125 27.359375 -43.28125 L 27.359375 -34.15625 L 25.109375 -34.15625 C 21.660156 -34.15625 19.046875 -33.28125 17.265625 -31.53125 C 15.492188 -29.78125 14.609375 -26.738281 14.609375 -22.40625 L 14.609375 0 L 5.796875 0 L 5.796875 -42.578125 L 14.609375 -42.578125 Z M 14.609375 -36.40625 "/></g></g><g style="fill:#000000;fill-opacity:1;"><g transform="translate(354.586764, 82.134949)"><path style="stroke:none" d="M 44.828125 -22.328125 C 44.828125 -20.734375 44.722656 -19.289062 44.515625 -18 L 11.984375 -18 C 12.234375 -14.601562 13.492188 -11.875 15.765625 -9.8125 C 18.035156 -7.75 20.816406 -6.71875 24.109375 -6.71875 C 28.847656 -6.71875 32.195312 -8.703125 34.15625 -12.671875 L 43.65625 -12.671875 C 42.375 -8.753906 40.046875 -5.546875 36.671875 -3.046875 C 33.296875 -0.546875 29.109375 0.703125 24.109375 0.703125 C 20.035156 0.703125 16.390625 -0.210938 13.171875 -2.046875 C 9.953125 -3.878906 7.425781 -6.457031 5.59375 -9.78125 C 3.769531 -13.101562 2.859375 -16.953125 2.859375 -21.328125 C 2.859375 -25.710938 3.742188 -29.566406 5.515625 -32.890625 C 7.296875 -36.210938 9.796875 -38.773438 13.015625 -40.578125 C 16.242188 -42.378906 19.941406 -43.28125 24.109375 -43.28125 C 28.128906 -43.28125 31.707031 -42.398438 34.84375 -40.640625 C 37.988281 -38.890625 40.4375 -36.429688 42.1875 -33.265625 C 43.945312 -30.097656 44.828125 -26.453125 44.828125 -22.328125 Z M 35.625 -25.109375 C 35.570312 -28.359375 34.410156 -30.960938 32.140625 -32.921875 C 29.878906 -34.878906 27.070312 -35.859375 23.71875 -35.859375 C 20.6875 -35.859375 18.085938 -34.890625 15.921875 -32.953125 C 13.753906 -31.023438 12.46875 -28.410156 12.0625 -25.109375 Z M 35.625 -25.109375 "/></g></g></g></svg>